<?xml version="1.0" encoding="UTF-8" standalone="no"?>
<!-- Created with Inkscape (http://www.inkscape.org/) -->

<svg
   xmlns:dc="http://purl.org/dc/elements/1.1/"
   xmlns:cc="http://creativecommons.org/ns#"
   xmlns:rdf="http://www.w3.org/1999/02/22-rdf-syntax-ns#"
   xmlns:svg="http://www.w3.org/2000/svg"
   xmlns="http://www.w3.org/2000/svg"
   xmlns:sodipodi="http://sodipodi.sourceforge.net/DTD/sodipodi-0.dtd"
   xmlns:inkscape="http://www.inkscape.org/namespaces/inkscape"
   width="213mm"
   height="408mm"
   viewBox="0 0 213 408"
   version="1.1"
   id="svg8"
   inkscape:version="0.92.4 (5da689c313, 2019-01-14)"
   sodipodi:docname="grape.svg"
   inkscape:export-filename="D:\ResDev\_Orgs\CL-GDAL\CL_KIITA\ident\grape_ei_i.png"
   inkscape:export-xdpi="25.4"
   inkscape:export-ydpi="25.4">
  <defs
     id="defs2">
    <marker
       inkscape:isstock="true"
       style="overflow:visible"
       id="marker1269"
       refX="0"
       refY="0"
       orient="auto"
       inkscape:stockid="Arrow1Lend">
      <path
         transform="matrix(-0.8,0,0,-0.8,-10,0)"
         style="fill:#00b200;fill-opacity:1;fill-rule:evenodd;stroke:#00b200;stroke-width:1.00000003pt;stroke-opacity:1"
         d="M 0,0 5,-5 -12.5,0 5,5 Z"
         id="path1267"
         inkscape:connector-curvature="0" />
    </marker>
  </defs>
  <sodipodi:namedview
     id="base"
     pagecolor="#ffffff"
     bordercolor="#666666"
     borderopacity="1.0"
     inkscape:pageopacity="0.0"
     inkscape:pageshadow="2"
     inkscape:zoom="0.35"
     inkscape:cx="-694.97094"
     inkscape:cy="1058.3594"
     inkscape:document-units="mm"
     inkscape:current-layer="layer2"
     showgrid="false"
     inkscape:window-width="1822"
     inkscape:window-height="1051"
     inkscape:window-x="1689"
     inkscape:window-y="-9"
     inkscape:window-maximized="1"
     showguides="false" />
  <metadata
     id="metadata5">
    <rdf:RDF>
      <cc:Work
         rdf:about="">
        <dc:format>image/svg+xml</dc:format>
        <dc:type
           rdf:resource="http://purl.org/dc/dcmitype/StillImage" />
        <dc:title></dc:title>
      </cc:Work>
    </rdf:RDF>
  </metadata>
  <g
     inkscape:groupmode="layer"
     id="layer2"
     inkscape:label="レイヤー 2"
     transform="translate(0,43)">
    <path
       style="opacity:1;fill:#941f57;fill-opacity:1;stroke:none;stroke-width:0.97584677;stroke-linecap:round;stroke-linejoin:round;stroke-miterlimit:4;stroke-dasharray:none;stroke-dashoffset:53.70708847;stroke-opacity:1;paint-order:normal"
       d="M 65.524326,37.852976 A 16.992632,15.218821 69.984731 0 1 71.005563,61.208022 16.992632,15.218821 69.984731 0 1 49.873398,65.526738 16.992632,15.218821 69.984731 0 1 44.392165,42.171722 16.992632,15.218821 69.984731 0 1 65.524326,37.852976 Z"
       id="path827"
       inkscape:connector-curvature="0" />
    <path
       style="opacity:1;fill:#941f57;fill-opacity:1;stroke:none;stroke-width:0.96514285;stroke-linecap:round;stroke-linejoin:round;stroke-miterlimit:4;stroke-dasharray:none;stroke-dashoffset:53.70708847;stroke-opacity:1;paint-order:normal"
       d="m 102.79811,42.968728 a 15.174841,16.670072 12.61824 0 1 -9.413758,21.517406 15.174841,16.670072 12.61824 0 1 -19.40301,-9.393329 15.174841,16.670072 12.61824 0 1 9.413785,-21.517467 15.174841,16.670072 12.61824 0 1 19.402983,9.39339 z"
       id="path827-2"
       inkscape:connector-curvature="0" />
    <path
       style="opacity:1;fill:#941f57;fill-opacity:1;stroke:none;stroke-width:0.97584677;stroke-linecap:round;stroke-linejoin:round;stroke-miterlimit:4;stroke-dasharray:none;stroke-dashoffset:53.70708847;stroke-opacity:1;paint-order:normal"
       d="M 86.704829,76.138048 A 15.218821,16.992632 26.131422 0 1 73.660574,96.271274 15.218821,16.992632 26.131422 0 1 55.905593,84.024703 15.218821,16.992632 26.131422 0 1 68.949845,63.891457 15.218821,16.992632 26.131422 0 1 86.704829,76.138048 Z"
       id="path827-7"
       inkscape:connector-curvature="0" />
    <path
       style="opacity:1;fill:#941f57;fill-opacity:1;stroke:none;stroke-width:0.97584677;stroke-linecap:round;stroke-linejoin:round;stroke-miterlimit:4;stroke-dasharray:none;stroke-dashoffset:53.70708847;stroke-opacity:1;paint-order:normal"
       d="m 115.05943,70.893448 a 15.218821,16.992632 10.053159 0 1 -6.95809,22.958298 15.218821,16.992632 10.053159 0 1 -20.452165,-6.850331 15.218821,16.992632 10.053159 0 1 6.958086,-22.958301 15.218821,16.992632 10.053159 0 1 20.452169,6.850334 z"
       id="path827-0"
       inkscape:connector-curvature="0" />
    <path
       style="opacity:1;fill:#941f57;fill-opacity:1;stroke:none;stroke-width:0.98820949;stroke-linecap:round;stroke-linejoin:round;stroke-miterlimit:4;stroke-dasharray:none;stroke-dashoffset:53.70708847;stroke-opacity:1;paint-order:normal"
       d="m 139.7301,71.341735 a 15.596653,17.003764 13.023127 0 1 -7.13811,22.949908 15.596653,17.003764 13.023127 0 1 -20.98136,-6.847831 15.596653,17.003764 13.023127 0 1 7.13811,-22.949898 15.596653,17.003764 13.023127 0 1 20.98136,6.847821 z"
       id="path827-0-6"
       inkscape:connector-curvature="0" />
    <path
       style="opacity:1;fill:#941f57;fill-opacity:1;stroke:none;stroke-width:0.97668391;stroke-linecap:round;stroke-linejoin:round;stroke-miterlimit:4;stroke-dasharray:none;stroke-dashoffset:53.70708847;stroke-opacity:1;paint-order:normal"
       d="m 132.11948,40.839287 a 15.520893,16.69052 15.74111 0 1 -7.11024,22.505623 15.520893,16.69052 15.74111 0 1 -20.89944,-6.715244 15.520893,16.69052 15.74111 0 1 7.11024,-22.505658 15.520893,16.69052 15.74111 0 1 20.89944,6.715279 z"
       id="path827-0-66"
       inkscape:connector-curvature="0" />
    <path
       style="opacity:1;fill:#941f57;fill-opacity:1;stroke:none;stroke-width:0.97584677;stroke-linecap:round;stroke-linejoin:round;stroke-miterlimit:4;stroke-dasharray:none;stroke-dashoffset:53.70708847;stroke-opacity:1;paint-order:normal"
       d="M 164.1175,60.299928 A 15.218821,16.992632 51.253333 0 1 143.75961,72.990836 15.218821,16.992632 51.253333 0 1 132.8834,54.364951 15.218821,16.992632 51.253333 0 1 153.24128,41.673976 15.218821,16.992632 51.253333 0 1 164.1175,60.299928 Z"
       id="path827-0-8"
       inkscape:connector-curvature="0" />
    <path
       style="opacity:1;fill:#941f57;fill-opacity:1;stroke:none;stroke-width:0.94695526;stroke-linecap:round;stroke-linejoin:round;stroke-miterlimit:4;stroke-dasharray:none;stroke-dashoffset:53.70708847;stroke-opacity:1;paint-order:normal"
       d="m 98.651779,98.062862 a 14.950838,16.288154 13.139161 0 1 -6.842803,21.983268 14.950838,16.288154 13.139161 0 1 -20.113387,-6.5594 14.950838,16.288154 13.139161 0 1 6.842817,-21.983229 14.950838,16.288154 13.139161 0 1 20.113373,6.559361 z"
       id="path827-0-2"
       inkscape:connector-curvature="0" />
    <path
       style="opacity:1;fill:#941f57;fill-opacity:1;stroke:none;stroke-width:0.98620117;stroke-linecap:round;stroke-linejoin:round;stroke-miterlimit:4;stroke-dasharray:none;stroke-dashoffset:53.70708847;stroke-opacity:1;paint-order:normal"
       d="m 134.60389,103.0732 a 15.547753,16.987984 19.192663 0 1 -10.41293,21.6174 15.547753,16.987984 19.192663 0 1 -19.62561,-9.98712 15.547753,16.987984 19.192663 0 1 10.41292,-21.617358 15.547753,16.987984 19.192663 0 1 19.62562,9.987078 z"
       id="path827-0-668"
       inkscape:connector-curvature="0" />
    <path
       style="opacity:1;fill:#941f57;fill-opacity:1;stroke:none;stroke-width:0.97584677;stroke-linecap:round;stroke-linejoin:round;stroke-miterlimit:4;stroke-dasharray:none;stroke-dashoffset:53.70708847;stroke-opacity:1;paint-order:normal"
       d="m 102.76777,116.74837 a 16.992632,15.218821 56.429198 0 1 10.80268,21.41976 16.992632,15.218821 56.429198 0 1 -19.531193,9.15156 16.992632,15.218821 56.429198 0 1 -10.802696,-21.41976 16.992632,15.218821 56.429198 0 1 19.531209,-9.15156 z"
       id="path827-0-20"
       inkscape:connector-curvature="0" />
    <path
       inkscape:connector-curvature="0"
       style="opacity:1;fill:#941f57;fill-opacity:1;stroke:none;stroke-width:0.97584677;stroke-linecap:round;stroke-linejoin:round;stroke-miterlimit:4;stroke-dasharray:none;stroke-dashoffset:53.70708847;stroke-opacity:1;paint-order:normal"
       d="m 167.41682,115.83769 a 16.992632,15.218821 69.984727 0 1 5.48124,23.3551 16.992632,15.218821 69.984727 0 1 -21.13217,4.31874 16.992632,15.218821 69.984727 0 1 -5.48123,-23.35509 16.992632,15.218821 69.984727 0 1 21.13216,-4.31875 z"
       id="path827-3" />
    <path
       style="fill:#941f57;fill-opacity:1;stroke:none;stroke-width:0.26458332px;stroke-linecap:butt;stroke-linejoin:miter;stroke-opacity:1"
       d="M 115.62289,21.77869 C 98.235992,38.031665 75.746425,34.346398 67.903418,21.117233 59.871425,4.5807783 69.037348,-8.837369 80.376633,-11.010731 93.133333,-12.995106 101.92125,-5.5300798 101.0708,1.6514638 101.25979,11.762322 95.306687,18.754882 86.896723,18.660387 80.471127,18.754887 77.7308,12.234793 78.67574,8.0770562 79.898431,4.831834 80.172416,4.0519706 82.418329,2.9619322 83.469849,3.9453816 81.198059,2.2749475 79.995346,7.9878302 79.828302,16.37341 86.075727,15.504784 87.980023,15.003654 97.534895,11.729602 97.802165,2.8763032 95.530387,-0.66501558 91.755204,-7.0460719 80.696928,-7.6140186 75.986303,-0.73183558 69.905921,7.6537435 70.072964,12.431185 75.184494,21.117444 c 7.015825,8.619443 14.365737,8.920121 20.546353,7.784225 5.919733,-0.861374 12.851083,-4.314717 19.157053,-7.657518 1.69584,-0.98132 1.45331,-0.252079 0.73499,0.534539 z"
       id="path2010"
       inkscape:connector-curvature="0"
       sodipodi:nodetypes="ccccccccccccccc" />
    <path
       style="fill:#941f57;stroke:#000000;stroke-width:0.26458332px;stroke-linecap:butt;stroke-linejoin:miter;stroke-opacity:1;fill-opacity:1"
       d="m 121.99182,17.828868 9.82739,-10.961309 c 0,0 17.10341,1.7008932 21.16665,-1.3229168 0.37798,-0.094494 -19.37127,-1.1339285 -19.37127,-1.1339285 l 14.26859,-12.4732143 5.10268,-1.2284226 -4.06324,-1.1339288 -2.17336,-7.276041 -1.51191,7.370535 -14.74107,13.1346729 -6.04762,-14.2686019 c 0.47247,6.425596 0.66146,9.5438995 4.34673,16.9144352 L 120.59391,16.620885 C 104.81968,13.072273 104.93949,2.972751 106.37327,-6.9055493 c 2.40542,-0.100225 4.94449,0.434314 6.88219,1.5368009 -1.09103,-15.4504486 7.79142,-22.8209846 16.10688,-27.1677106 1.98439,1.700893 3.77977,4.91369 4.63022,9.449405 12.75669,-6.99256 23.8125,-3.96875 30.1436,-2.456845 0.37797,4.819196 0.56696,16.7254461 -6.70908,26.26934485 7.18155,-0.58890892 8.5875,0.23386089 10.39435,1.03943455 -0.66146,5.8586306 -7.85921,23.0699786 -18.15907,25.3378366 -1.26525,-1.702952 -4.10284,-1.552167 -3.73427,1.989377 -2.14354,-0.564156 -7.74975,3.7587 -9.487,4.226421 -9.28762,-3.942225 -11.86012,-7.793664 -14.44927,-15.489647 z"
       id="path845"
       inkscape:connector-curvature="0"
       sodipodi:nodetypes="cccccccccccccccccccccccc" />
  </g>
</svg>
