<svg xmlns="http://www.w3.org/2000/svg" xmlns:xlink="http://www.w3.org/1999/xlink" x="1000" y="600"
  viewBox="0 0 1000 600">
  <style>
    svg {
      fill: aqua;
    }

    .base {
      fill: #721f71;
    }

    .fimb {
      fill: #fcc446;
    }

    .cross,
    .center {
      fill: #ffced7;
    }

    .cantonBack {
      fill: #fff;
    }

    .grape,
    .book,
    .migdal {
      fill: #941f57;
    }
  </style>

  <path d="M0,0 h1000 v600 h-1000 z" class="base" />
  <path d="M0,225 h335 v-225 h150 v225 h515 v150 h-515 v225 h-150 v-225 h-335 z" class="fimb" />
  <path d="M0,0 h335 v225 h-335 z" class="cantonBack" />
  <path d="M270,160 h280 v280 h-280 z" class="fimb" />
  <path d="M0,255 h365 v-255 h90 v255 h545 v90 h-545 v255 h-90 v-255 h-365 z" class="cross" />
  <path d="M285,175 h250 v250 h-250 z" class="center" />
  <g transform="scale(0.7) translate(950,325)" class="book">
    <path
      d="m 165.76143,147.96087 -0.0945,-43.18378 c 1.22843,-22.867566 0.75595,-24.190482 38.36458,-50.081852 v 47.058042 c -0.18898,12.7567 1.20481,11.17392 -22.30059,30.40346 -8.57533,6.89807 -12.85119,8.90606 -15.96949,15.80413 z" />
    <path
      d="m 172.87211,147.27579 c 21.26116,-11.33929 12.82757,-8.66983 59.31864,-24.16685 26.45833,-8.88245 25.98586,-4.34673 25.89136,-22.11162 V 54.884225 c -28.91748,6.182239 -25.46654,1.053036 -25.95917,21.977974 v 22.197995 c -0.59365,17.056176 0.82376,13.796136 -6.40504,16.772696 -13.22916,5.55153 -19.87983,9.42136 -27.16703,13.57171 -7.38034,4.08262 -5.70759,2.84327 -26.36833,16.40111 -2.29535,1.81905 -3.9763,3.89068 0.68957,1.47008 z" />
    <path
      d="m 239.91735,126.16736 c 13.43945,-3.39229 22.18337,-4.67722 41.96132,-8.68627 22.71791,-3.60813 21.38156,-2.53905 21.5152,-13.63074 V 54.672754 l -22.71792,4.543581 v 43.030405 c 0.46271,14.62559 0.55721,11.3183 -16.26273,15.85401 -11.96554,2.82532 -12.4041,2.80518 -24.56845,6.04762 -3.86965,1.35082 -5.80735,3.22171 0.0726,2.01899 z" />
    <path
      d="m 158.4009,148.47954 0.0945,-43.18378 C 157.26697,82.428202 157.73945,81.105286 120.13082,55.213915 v 47.058035 c 0.18898,12.7567 -1.20481,11.17392 22.30059,30.40346 8.57533,6.89807 12.85119,8.90606 15.96949,15.80413 z" />
    <path
      d="M 151.29022,147.79446 C 130.02906,136.45517 138.46265,139.12463 91.971628,123.62761 65.513304,114.74516 65.985774,119.28088 66.080274,101.51599 V 55.402902 c 28.917456,6.182239 25.466534,1.053036 25.959164,21.977975 v 22.197996 c 0.593644,17.056167 -0.823757,13.796127 6.405001,16.772687 13.229151,5.55153 19.879821,9.42136 27.167021,13.57171 7.38034,4.08262 5.70759,2.84327 26.36833,16.40111 2.29535,1.81905 3.9763,3.89068 -0.68957,1.47008 z" />
    <path
      d="m 84.245034,126.68603 c -13.43945,-3.39229 -22.18337,-4.67722 -41.96132,-8.68627 -22.71791,-3.60813 -21.38156,-2.53905 -21.5152,-13.63074 V 55.191431 l 22.71792,4.543581 v 43.030398 c -0.46271,14.62559 -0.55721,11.3183 16.26273,15.85401 11.96554,2.82532 12.4041,2.80518 24.56845,6.04762 3.86965,1.35082 5.807353,3.22171 -0.0726,2.01899 z" />
  </g>
  <g transform="translate(60,43)" class="grape">
    <path
      d="M 65.524326,37.852976 A 16.992632,15.218821 69.984731 0 1 71.005563,61.208022 16.992632,15.218821 69.984731 0 1 49.873398,65.526738 16.992632,15.218821 69.984731 0 1 44.392165,42.171722 16.992632,15.218821 69.984731 0 1 65.524326,37.852976 Z" />
    <path
      d="m 102.79811,42.968728 a 15.174841,16.670072 12.61824 0 1 -9.413758,21.517406 15.174841,16.670072 12.61824 0 1 -19.40301,-9.393329 15.174841,16.670072 12.61824 0 1 9.413785,-21.517467 15.174841,16.670072 12.61824 0 1 19.402983,9.39339 z" />
    <path
      d="M 86.704829,76.138048 A 15.218821,16.992632 26.131422 0 1 73.660574,96.271274 15.218821,16.992632 26.131422 0 1 55.905593,84.024703 15.218821,16.992632 26.131422 0 1 68.949845,63.891457 15.218821,16.992632 26.131422 0 1 86.704829,76.138048 Z" />
    <path
      d="m 115.05943,70.893448 a 15.218821,16.992632 10.053159 0 1 -6.95809,22.958298 15.218821,16.992632 10.053159 0 1 -20.452165,-6.850331 15.218821,16.992632 10.053159 0 1 6.958086,-22.958301 15.218821,16.992632 10.053159 0 1 20.452169,6.850334 z" />
    <path
      d="m 139.7301,71.341735 a 15.596653,17.003764 13.023127 0 1 -7.13811,22.949908 15.596653,17.003764 13.023127 0 1 -20.98136,-6.847831 15.596653,17.003764 13.023127 0 1 7.13811,-22.949898 15.596653,17.003764 13.023127 0 1 20.98136,6.847821 z" />
    <path
      d="m 132.11948,40.839287 a 15.520893,16.69052 15.74111 0 1 -7.11024,22.505623 15.520893,16.69052 15.74111 0 1 -20.89944,-6.715244 15.520893,16.69052 15.74111 0 1 7.11024,-22.505658 15.520893,16.69052 15.74111 0 1 20.89944,6.715279 z" />
    <path
      d="M 164.1175,60.299928 A 15.218821,16.992632 51.253333 0 1 143.75961,72.990836 15.218821,16.992632 51.253333 0 1 132.8834,54.364951 15.218821,16.992632 51.253333 0 1 153.24128,41.673976 15.218821,16.992632 51.253333 0 1 164.1175,60.299928 Z" />
    <path
      d="m 98.651779,98.062862 a 14.950838,16.288154 13.139161 0 1 -6.842803,21.983268 14.950838,16.288154 13.139161 0 1 -20.113387,-6.5594 14.950838,16.288154 13.139161 0 1 6.842817,-21.983229 14.950838,16.288154 13.139161 0 1 20.113373,6.559361 z" />
    <path
      d="m 134.60389,103.0732 a 15.547753,16.987984 19.192663 0 1 -10.41293,21.6174 15.547753,16.987984 19.192663 0 1 -19.62561,-9.98712 15.547753,16.987984 19.192663 0 1 10.41292,-21.617358 15.547753,16.987984 19.192663 0 1 19.62562,9.987078 z" />
    <path
      d="m 102.76777,116.74837 a 16.992632,15.218821 56.429198 0 1 10.80268,21.41976 16.992632,15.218821 56.429198 0 1 -19.531193,9.15156 16.992632,15.218821 56.429198 0 1 -10.802696,-21.41976 16.992632,15.218821 56.429198 0 1 19.531209,-9.15156 z" />
    <path
      d="m 167.41682,115.83769 a 16.992632,15.218821 69.984727 0 1 5.48124,23.3551 16.992632,15.218821 69.984727 0 1 -21.13217,4.31874 16.992632,15.218821 69.984727 0 1 -5.48123,-23.35509 16.992632,15.218821 69.984727 0 1 21.13216,-4.31875 z" />
    <path
      d="M 115.62289,21.77869 C 98.235992,38.031665 75.746425,34.346398 67.903418,21.117233 59.871425,4.5807783 69.037348,-8.837369 80.376633,-11.010731 93.133333,-12.995106 101.92125,-5.5300798 101.0708,1.6514638 101.25979,11.762322 95.306687,18.754882 86.896723,18.660387 80.471127,18.754887 77.7308,12.234793 78.67574,8.0770562 79.898431,4.831834 80.172416,4.0519706 82.418329,2.9619322 83.469849,3.9453816 81.198059,2.2749475 79.995346,7.9878302 79.828302,16.37341 86.075727,15.504784 87.980023,15.003654 97.534895,11.729602 97.802165,2.8763032 95.530387,-0.66501558 91.755204,-7.0460719 80.696928,-7.6140186 75.986303,-0.73183558 69.905921,7.6537435 70.072964,12.431185 75.184494,21.117444 c 7.015825,8.619443 14.365737,8.920121 20.546353,7.784225 5.919733,-0.861374 12.851083,-4.314717 19.157053,-7.657518 1.69584,-0.98132 1.45331,-0.252079 0.73499,0.534539 z" />
    <path
      d="m 121.99182,17.828868 9.82739,-10.961309 c 0,0 17.10341,1.7008932 21.16665,-1.3229168 0.37798,-0.094494 -19.37127,-1.1339285 -19.37127,-1.1339285 l 14.26859,-12.4732143 5.10268,-1.2284226 -4.06324,-1.1339288 -2.17336,-7.276041 -1.51191,7.370535 -14.74107,13.1346729 -6.04762,-14.2686019 c 0.47247,6.425596 0.66146,9.5438995 4.34673,16.9144352 L 120.59391,16.620885 C 104.81968,13.072273 104.93949,2.972751 106.37327,-6.9055493 c 2.40542,-0.100225 4.94449,0.434314 6.88219,1.5368009 -1.09103,-15.4504486 7.79142,-22.8209846 16.10688,-27.1677106 1.98439,1.700893 3.77977,4.91369 4.63022,9.449405 12.75669,-6.99256 23.8125,-3.96875 30.1436,-2.456845 0.37797,4.819196 0.56696,16.7254461 -6.70908,26.26934485 7.18155,-0.58890892 8.5875,0.23386089 10.39435,1.03943455 -0.66146,5.8586306 -7.85921,23.0699786 -18.15907,25.3378366 -1.26525,-1.702952 -4.10284,-1.552167 -3.73427,1.989377 -2.14354,-0.564156 -7.74975,3.7587 -9.487,4.226421 -9.28762,-3.942225 -11.86012,-7.793664 -14.44927,-15.489647 z" />
  </g>
  <g transform="translate(305,190)" class="migdal">
    <path d="M 80.715397,30.127606 78.176336,41.753832 137.37654,33.869381 136.04019,22.64406 Z" />
    <path d="m 72.563677,47.901031 -2.80633,13.630746 74.568193,-9.488069 -1.73725,-13.096206 z" />
    <path d="M 63.743781,67.946245 60.670183,81.443355 150.87365,69.683497 149.67093,56.587289 Z" />
    <path d="M 54.656619,88.125095 50.914844,102.95855 158.3572,88.926903 156.88721,74.761618 Z" />
    <path d="M 45.034914,109.50666 40.624969,128.48279 167.31072,111.91208 165.03893,94.005023 Z" />
    <path d="m 33.261905,135.16071 -4.91369,17.5759 147.977675,-19.46578 -2.26785,-16.63095 z" />
    <path d="m 22.489583,158.97321 -7.559524,22.86756 170.858671,-23.05655 -3.22623,-20.5997 z" />
    <path
      d="m 6.0784149,187.90738 186.5004551,-24.58744 5.17309,26.11278 7.63013,-0.23528 0.0303,14.31221 -198.597057,-0.39184 z" />
  </g>
</svg>