<?xml version="1.0" encoding="UTF-8" standalone="no"?>
<!-- Created with Inkscape (http://www.inkscape.org/) -->

<svg
   xmlns:dc="http://purl.org/dc/elements/1.1/"
   xmlns:cc="http://creativecommons.org/ns#"
   xmlns:rdf="http://www.w3.org/1999/02/22-rdf-syntax-ns#"
   xmlns:svg="http://www.w3.org/2000/svg"
   xmlns="http://www.w3.org/2000/svg"
   xmlns:sodipodi="http://sodipodi.sourceforge.net/DTD/sodipodi-0.dtd"
   xmlns:inkscape="http://www.inkscape.org/namespaces/inkscape"
   width="1280mm"
   height="640mm"
   viewBox="0 0 1280 640"
   version="1.1"
   id="svg8"
   inkscape:version="0.92.4 (5da689c313, 2019-01-14)"
   sodipodi:docname="CL_KIITA_Logo+.svg"
   inkscape:export-filename="D:\ResDev\_Orgs\CL-GDAL\CL_KIITA\ident\CL_KIITA_Logo+.png"
   inkscape:export-xdpi="25.4"
   inkscape:export-ydpi="25.4">
  <defs
     id="defs2">
    <pattern
       y="0"
       x="0"
       height="6"
       width="6"
       patternUnits="userSpaceOnUse"
       id="EMFhbasepattern" />
  </defs>
  <sodipodi:namedview
     id="base"
     pagecolor="#ffffff"
     bordercolor="#666666"
     borderopacity="1.0"
     inkscape:pageopacity="0.0"
     inkscape:pageshadow="2"
     inkscape:zoom="0.12374369"
     inkscape:cx="952.45398"
     inkscape:cy="-379.24012"
     inkscape:document-units="mm"
     inkscape:current-layer="layer1"
     showgrid="false"
     inkscape:window-width="1842"
     inkscape:window-height="1051"
     inkscape:window-x="1669"
     inkscape:window-y="-9"
     inkscape:window-maximized="1" />
  <metadata
     id="metadata5">
    <rdf:RDF>
      <cc:Work
         rdf:about="">
        <dc:format>image/svg+xml</dc:format>
        <dc:type
           rdf:resource="http://purl.org/dc/dcmitype/StillImage" />
        <dc:title></dc:title>
      </cc:Work>
    </rdf:RDF>
  </metadata>
  <g
     inkscape:label="レイヤー 1"
     inkscape:groupmode="layer"
     id="layer1"
     transform="translate(0,343)">
    <path
       id="path818"
       d="m 411.17236,-199.3043 c 10.88337,7.77832 14.52159,23.27235 8.12332,34.59486 -6.39829,11.32248 -20.41805,14.20798 -31.33279,6.39833 -10.88332,-7.77842 -14.52157,-23.27235 -8.12327,-34.59491 6.42965,-11.32243 20.44941,-14.17667 31.33274,-6.39828 z"
       style="fill:#941f57;fill-opacity:1;fill-rule:nonzero;stroke:none;stroke-width:0.39205447"
       inkscape:connector-curvature="0"
       inkscape:export-xdpi="25.4"
       inkscape:export-ydpi="25.4" />
    <path
       id="path820"
       d="m 466.40462,-191.71413 c 4.07732,12.63979 -2.16413,26.91064 -13.95708,31.86617 -11.79291,4.95552 -24.6522,-1.2546 -28.76088,-13.92583 -4.07737,-12.63978 2.1641,-26.91061 13.95704,-31.86611 11.79288,-4.95553 24.68358,1.25455 28.76092,13.92577 z"
       style="fill:#941f57;fill-opacity:1;fill-rule:nonzero;stroke:none;stroke-width:0.39205447"
       inkscape:connector-curvature="0"
       inkscape:export-xdpi="25.4"
       inkscape:export-ydpi="25.4" />
    <path
       id="path822"
       d="m 442.56782,-142.56633 c 1.91321,13.23589 -6.74325,26.59696 -19.35165,29.8276 -12.60836,3.23049 -24.36993,-4.89286 -26.3145,-18.16003 -1.91318,-13.23569 6.74331,-26.59696 19.35166,-29.82738 12.57708,-3.23056 24.36994,4.8928 26.31449,18.15981 z"
       style="fill:#941f57;fill-opacity:1;fill-rule:nonzero;stroke:none;stroke-width:0.39205447"
       inkscape:connector-curvature="0"
       inkscape:export-xdpi="25.4"
       inkscape:export-ydpi="25.4" />
    <path
       id="path824"
       d="m 484.56444,-150.34459 c 5.52003,12.20071 0.90948,27.41236 -10.31885,34.03029 -11.19694,6.58656 -24.77764,2.03865 -30.2977,-10.16205 -5.52011,-12.20066 -0.90957,-27.44369 10.31878,-34.03035 11.197,-6.5864 24.77772,-2.03862 30.29777,10.16211 z"
       style="fill:#941f57;fill-opacity:1;fill-rule:nonzero;stroke:none;stroke-width:0.39205447"
       inkscape:connector-curvature="0"
       inkscape:export-xdpi="25.4"
       inkscape:export-ydpi="25.4" />
    <path
       id="path826"
       d="m 521.13495,-149.68586 c 5.64566,12.20063 0.90955,27.41232 -10.60111,33.99884 -11.47924,6.58649 -25.40483,2.07003 -31.08174,-10.13066 -5.64562,-12.20072 -0.90958,-27.41243 10.5697,-33.99895 11.51061,-6.58651 25.43631,-2.07001 31.11315,10.13077 z"
       style="fill:#941f57;fill-opacity:1;fill-rule:nonzero;stroke:none;stroke-width:0.39205447"
       inkscape:connector-curvature="0"
       inkscape:export-xdpi="25.4"
       inkscape:export-ydpi="25.4" />
    <path
       id="path828"
       d="m 509.84388,-194.88188 c 5.64555,11.94977 0.94099,26.8792 -10.53844,33.34019 -11.44783,6.46106 -25.31072,2.00732 -30.95623,-9.94245 -5.64559,-11.94981 -0.94096,-26.87926 10.53825,-33.34026 11.44791,-6.46107 25.31093,-2.00731 30.95642,9.94252 z"
       style="fill:#941f57;fill-opacity:1;fill-rule:nonzero;stroke:none;stroke-width:0.39205447"
       inkscape:connector-curvature="0"
       inkscape:export-xdpi="25.4"
       inkscape:export-ydpi="25.4" />
    <path
       id="path830"
       d="m 557.26642,-166.0581 c -3.88911,12.82799 -17.40705,21.23362 -30.17228,18.81855 -12.76526,-2.41506 -20.01027,-14.77255 -16.12115,-27.60061 3.88915,-12.79665 17.37578,-21.23356 30.17232,-18.78718 12.76518,2.41504 19.97892,14.7726 16.12111,27.56924 z"
       style="fill:#941f57;fill-opacity:1;fill-rule:nonzero;stroke:none;stroke-width:0.39205447"
       inkscape:connector-curvature="0"
       inkscape:export-xdpi="25.4"
       inkscape:export-ydpi="25.4" />
    <path
       id="path832"
       d="m 460.25722,-110.07278 c 5.42601,11.667421 0.87819,26.251655 -10.13062,32.555838 -11.0402,6.304153 -24.3699,1.975952 -29.82726,-9.72281 -5.42603,-11.667333 -0.8782,-26.251808 10.162,-32.556028 11.00878,-6.3356 24.36986,-1.97592 29.79588,9.723 z"
       style="fill:#941f57;fill-opacity:1;fill-rule:nonzero;stroke:none;stroke-width:0.39205447"
       inkscape:connector-curvature="0"
       inkscape:export-xdpi="25.4"
       inkscape:export-ydpi="25.4" />
    <path
       id="path834"
       d="m 513.51356,-102.6709 c 3.79501,12.95332 -3.13647,27.286751 -15.39985,32.054029 -12.29477,4.735971 -25.31083,-1.88176 -29.1059,-14.803786 -3.76366,-12.953266 3.13644,-27.286743 15.43117,-32.054213 12.29473,-4.73594 25.31076,1.88195 29.07458,14.80397 z"
       style="fill:#941f57;fill-opacity:1;fill-rule:nonzero;stroke:none;stroke-width:0.39205447"
       inkscape:connector-curvature="0"
       inkscape:export-xdpi="25.4"
       inkscape:export-ydpi="25.4" />
    <path
       id="path836"
       d="m 466.34188,-82.409712 c 12.42017,5.018333 19.60251,19.226165 16.02697,31.740214 -3.57543,12.514353 -16.52885,18.598922 -28.94897,13.580707 -12.42021,-5.018243 -19.57127,-19.226208 -15.99572,-31.740381 3.57551,-12.514123 16.52887,-18.598728 28.91772,-13.58054 z"
       style="fill:#941f57;fill-opacity:1;fill-rule:nonzero;stroke:none;stroke-width:0.39205447"
       inkscape:connector-curvature="0"
       inkscape:export-xdpi="25.4"
       inkscape:export-ydpi="25.4" />
    <path
       id="path838"
       d="m 398.21899,271.25117 c -7.52739,-0.15713 -12.10653,-0.12584 -13.51795,-4.89279 -1.00368,-6.11597 -0.47047,-10.63243 11.82426,-12.45156 25.15405,-3.3873 44.94482,-1.725 43.94114,-35.25317 l -0.18808,-92.36741 45.13297,-0.31363 -0.18806,92.36743 c -1.00367,33.52815 18.8185,31.89721 43.97249,35.25319 12.26338,1.81914 12.79652,6.33554 11.82427,12.48291 -1.44266,4.73595 -5.99053,4.73595 -13.51794,4.89283 l -129.28291,0.28237 M 527.50192,-18.991805 c 7.52745,0.125971 12.07519,0.125971 13.51789,4.892841 0.97232,6.1158904 0.43916,10.6323348 -11.82425,12.451463 -25.154,3.3872491 -44.97621,1.72505756 -43.97253,35.253043 l 0.18809,92.367068 -45.13297,0.31363 0.18808,-92.367005 C 441.4699,0.39115256 421.67915,2.0220435 396.52512,-1.3338196 c -12.29477,-1.8191813 -12.82791,-6.335607 -11.8243,-12.4828034 1.41141,-4.736026 5.99056,-4.736026 13.51796,-4.892899 z"
       style="fill:#640125;fill-opacity:1;fill-rule:nonzero;stroke:none;stroke-width:0.39205447"
       inkscape:connector-curvature="0"
       inkscape:export-xdpi="25.4"
       inkscape:export-ydpi="25.4" />
    <path
       id="path840"
       d="m 550.9622,-60.235371 c 10.88346,7.80953 14.52167,23.303447 8.09205,34.625756 -6.39831,11.322423 -20.41812,14.176511 -31.30135,6.398235 -10.8835,-7.809657 -14.52168,-23.303449 -8.1235,-34.62574 6.39838,-11.322351 20.41819,-14.176581 31.3328,-6.398251 z"
       style="fill:#941f57;fill-opacity:1;fill-rule:nonzero;stroke:none;stroke-width:0.39205447"
       inkscape:connector-curvature="0"
       inkscape:export-xdpi="25.4"
       inkscape:export-ydpi="25.4" />
    <path
       id="path842"
       d="m 619.58693,18.833159 c 5.52011,12.200504 0.90965,27.412071 -10.28739,34.029866 -11.22833,6.586422 -24.80903,2.038677 -30.32908,-10.161929 -5.5201,-12.20061 -0.90966,-27.443485 10.31873,-34.0298311 11.22845,-6.5864663 24.77774,-2.0387158 30.29774,10.1618941 z"
       style="fill:#941f57;fill-opacity:1;fill-rule:nonzero;stroke:none;stroke-width:0.39205447"
       inkscape:connector-curvature="0"
       inkscape:export-xdpi="25.4"
       inkscape:export-ydpi="25.4" />
    <path
       id="path844"
       d="m 560.65375,63.43259 c 5.42602,11.667448 0.87821,26.251736 -10.1619,32.587284 -11.00878,6.304196 -24.36996,1.944548 -29.79605,-9.722923 -5.42588,-11.698745 -0.87808,-26.282944 10.13072,-32.587129 11.04018,-6.304111 24.40124,-1.944487 29.82723,9.722768 z"
       style="fill:#941f57;fill-opacity:1;fill-rule:nonzero;stroke:none;stroke-width:0.39205447"
       inkscape:connector-curvature="0"
       inkscape:export-xdpi="25.4"
       inkscape:export-ydpi="25.4" />
    <path
       id="path846"
       d="m 600.26665,156.70937 c -3.88911,12.82793 -17.4071,21.23357 -30.17226,18.81854 -12.79663,-2.41508 -20.01034,-14.77251 -16.12116,-27.60039 3.88904,-12.82794 17.37571,-21.23359 30.17227,-18.81849 12.76517,2.44641 19.97894,14.80381 16.12115,27.60034 z"
       style="fill:#941f57;fill-opacity:1;fill-rule:nonzero;stroke:none;stroke-width:0.39205447"
       inkscape:connector-curvature="0"
       inkscape:export-xdpi="25.4"
       inkscape:export-ydpi="25.4" />
    <path
       id="path848"
       d="m 485.41124,-223.10981 c -25.78132,24.05643 -59.08997,18.59903 -70.72606,-1.00367 -11.88702,-24.49552 1.6936,-44.38045 18.50484,-47.61098 18.88117,-2.91689 31.89729,8.12337 30.64269,18.78719 0.28237,14.96082 -8.53102,25.34238 -20.98254,25.18557 -9.53472,0.15683 -13.5807,-9.50339 -12.20066,-15.68215 1.81911,-4.79877 2.22688,-5.95924 5.55142,-7.5588 1.56821,1.44277 -1.81915,-1.03504 -3.57545,7.43332 -0.25082,12.42025 9.00147,11.13428 11.82422,10.38164 14.14522,-4.83012 14.55294,-17.94041 11.16561,-23.20964 -5.58278,-9.44066 -21.95484,-10.2875 -28.94907,-0.0939 -9.00149,12.42029 -8.75058,19.50863 -1.19185,32.36803 10.41288,12.79656 21.2963,13.23572 30.45459,11.54201 8.78193,-1.28597 19.03803,-6.39831 28.3845,-11.35386 2.50918,-1.44276 2.1641,-0.37639 1.09776,0.81545 z"
       style="fill:#941f57;fill-opacity:1;fill-rule:nonzero;stroke:none;stroke-width:0.39205447"
       inkscape:connector-curvature="0"
       inkscape:export-xdpi="25.4"
       inkscape:export-ydpi="25.4" />
    <path
       id="path850"
       d="M 401.44951,-15.949496 C 397.56033,-3.121606 384.07374,5.2839007 371.27717,2.8688982 358.51203,0.42250366 351.29825,-11.93489 355.15604,-24.73141 c 3.88915,-12.827798 17.4071,-21.233414 30.17231,-18.818396 12.79655,2.446433 20.01029,14.772419 16.12116,27.60031 z"
       style="fill:#941f57;fill-opacity:1;fill-rule:nonzero;stroke:none;stroke-width:0.39205447"
       inkscape:connector-curvature="0"
       inkscape:export-xdpi="25.4"
       inkscape:export-ydpi="25.4" />
    <path
       id="path852"
       d="m 494.85187,-228.97493 14.55292,-16.24672 c 0,0 25.34224,2.50916 31.36417,-1.94458 0.56448,-0.15706 -28.69822,-1.69363 -28.69822,-1.69363 l 21.13941,-18.47358 7.55881,-1.81916 -6.02193,-1.69365 -3.2305,-10.78934 -2.22689,10.94615 -21.86084,19.44586 -8.93875,-21.13955 c 0.69011,9.53475 0.97232,14.14532 6.42964,25.06007 l -12.13786,16.56038 c -23.39772,-5.26924 -23.20952,-20.22997 -21.07675,-34.87713 3.54419,-0.12561 7.30794,0.65867 10.1934,2.28962 -1.63094,-22.8959 11.54198,-33.81067 23.86811,-40.27168 2.94819,2.54049 5.58278,7.30785 6.86873,14.01981 18.88121,-10.35021 35.28461,-5.89651 44.66244,-3.63826 0.56451,7.15105 0.81549,24.77775 -9.94238,38.92302 10.63239,-0.87816 12.70247,0.34504 15.39979,1.53689 -0.97224,8.6879 -11.66753,34.18706 -26.91041,37.5431 -1.88184,-2.5092 -6.08467,-2.28962 -5.55141,2.94818 -3.16782,-0.84674 -11.47939,5.58288 -14.05115,6.27287 -13.76887,-5.8337 -17.56399,-11.54205 -21.39033,-22.95867 z"
       style="fill:#941f57;fill-opacity:1;fill-rule:nonzero;stroke:#000000;stroke-width:0.37636954px;stroke-linecap:butt;stroke-linejoin:miter;stroke-miterlimit:4;stroke-dasharray:none;stroke-opacity:1"
       inkscape:connector-curvature="0"
       inkscape:export-xdpi="25.4"
       inkscape:export-ydpi="25.4" />
    <path
       inkscape:connector-curvature="0"
       id="path903"
       d="M 176.33189,-0.17362786 172.38222,17.911481 258.70963,7.1167828 255.16097,-11.226631 Z"
       style="fill:#83274e;fill-opacity:1;stroke:none;stroke-width:13.32329464;stroke-linecap:butt;stroke-linejoin:miter;stroke-miterlimit:4;stroke-dasharray:none;stroke-opacity:1"
       sodipodi:nodetypes="ccccc"
       inkscape:export-xdpi="25.4"
       inkscape:export-ydpi="25.4" />
    <path
       inkscape:connector-curvature="0"
       id="path905"
       d="m 157.06619,37.351413 -7.30517,36.607762 127.98971,-15.347144 -8.5525,-33.596567 z"
       style="fill:#83274e;fill-opacity:1;stroke:none;stroke-width:13.32329464;stroke-linecap:butt;stroke-linejoin:miter;stroke-miterlimit:4;stroke-dasharray:none;stroke-opacity:1"
       sodipodi:nodetypes="ccccc"
       inkscape:export-xdpi="25.4"
       inkscape:export-ydpi="25.4" />
    <path
       sodipodi:nodetypes="ccccc"
       inkscape:connector-curvature="0"
       id="path909"
       d="M 133.68385,95.398627 122.68484,142.7514 302.16487,120.04253 292.23468,74.783331 Z"
       style="fill:#83274e;fill-opacity:1;stroke:none;stroke-width:13.32329464;stroke-linecap:butt;stroke-linejoin:miter;stroke-miterlimit:4;stroke-dasharray:none;stroke-opacity:1"
       inkscape:export-xdpi="25.4"
       inkscape:export-ydpi="25.4" />
    <path
       inkscape:connector-curvature="0"
       id="path913"
       d="M 104.21202,166.07877 91.579562,217.71433 330.28853,187.26203 319.46156,136.92429 Z"
       style="fill:#83274e;fill-opacity:1;stroke:none;stroke-width:13.32329464;stroke-linecap:butt;stroke-linejoin:miter;stroke-miterlimit:4;stroke-dasharray:none;stroke-opacity:1"
       sodipodi:nodetypes="ccccc"
       inkscape:export-xdpi="25.4"
       inkscape:export-ydpi="25.4" />
    <path
       sodipodi:nodetypes="ccccccc"
       inkscape:connector-curvature="0"
       id="path917"
       d="m 63.523077,245.26039 290.111813,-38.24702 8.04694,40.61975 11.86909,-0.36587 0.0471,22.26333 -308.928649,-0.60953 z"
       style="fill:#83274e;fill-opacity:1;stroke:none;stroke-width:13.32329464;stroke-linecap:butt;stroke-linejoin:miter;stroke-miterlimit:4;stroke-dasharray:none;stroke-opacity:1"
       inkscape:export-xdpi="25.4"
       inkscape:export-ydpi="25.4" />
    <path
       style="fill:#640125;fill-opacity:1;stroke:none;stroke-width:1.69739962;stroke-linecap:butt;stroke-linejoin:miter;stroke-miterlimit:4;stroke-dasharray:none;stroke-opacity:1"
       d="m 298.53131,-18.710108 -126.90248,0.295543 c 1.06496,-44.727184 -11.50137,-45.366085 -45.36634,-47.282934 -20.44669,1.916849 -29.605109,-8.093521 -21.72461,-34.290774 0.66139,-1.915697 -0.31648,-2.938817 -0.66258,-3.258377 -9.414163,-7.78384 -9.414163,-15.08826 -1.13093,-20.20878 1.15383,-0.65345 0.54546,-1.90197 0.18829,-2.20266 -14.345054,-10.37296 -5.007596,-15.26766 0.0377,-19.25875 7.15372,-7.37963 1.35545,-9.26217 -7.605509,-13.02739 -17.846593,-7.90675 -10.768197,-14.7592 -0.150656,-27.48551 9.412765,-10.39176 15.738155,-17.24437 18.976135,-21.4613 6.17478,-6.3254 1.05425,-16.71724 1.20485,-25.00055 -3.91569,-49.02216 55.72375,-81.40218 80.7243,-85.31792 57.682,-9.18691 97.59251,9.6387 111.74942,23.79556 40.0612,35.99472 38.1033,77.56187 32.38027,106.93001 l -4.89134,-1.3134 c 5.52571,-28.35575 7.4161,-65.45565 -31.26413,-100.20953 -13.66893,-13.66883 -50.82436,-32.1213 -106.5179,-23.2511 -24.13872,3.78072 -81.17057,37.25137 -76.01061,77.41149 -0.14545,7.99774 5.35031,24.10002 -3.09424,30.48327 -3.12635,4.07165 -9.23367,9.3087 -18.32198,19.3423 -10.251565,12.28738 -17.637649,15.24879 -0.406278,22.88297 13.410448,5.01458 13.353918,11.10797 6.033058,18.30222 -5.07819,4.40519 -11.680074,7.13122 1.20502,15.0088 2.20688,1.66958 1.96672,4.11635 0.0253,5.29886 -7.997718,4.94414 -7.446029,9.652 1.64364,17.16757 0,0 2.65757,2.39985 1.60522,5.766507 -8.85021,21.570194 -1.66258,29.166642 18.21718,28.143417 32.69755,1.850843 48.69262,5.502084 47.66437,48.687303 h 122.11049 z"
       id="path827-9"
       inkscape:connector-curvature="0"
       sodipodi:nodetypes="ccccccccccccccccccccccccccccccc"
       inkscape:export-xdpi="25.4"
       inkscape:export-ydpi="25.4" />
    <path
       style="fill:#83274e;fill-opacity:1;stroke:none;stroke-width:0.19169526px;stroke-linecap:butt;stroke-linejoin:miter;stroke-opacity:1"
       d="m 269.95478,-112.70637 -0.0685,-31.28759 c 0.89002,-16.56815 0.5477,-17.5267 27.79592,-36.28544 v 34.09453 c -0.13666,9.24263 0.87292,8.09585 -16.1572,22.02811 -6.21303,4.99776 -9.31099,6.45244 -11.57025,11.45039 z"
       id="path829"
       inkscape:connector-curvature="0"
       sodipodi:nodetypes="cccccc"
       inkscape:export-xdpi="25.4"
       inkscape:export-ydpi="25.4" />
    <path
       style="fill:#83274e;fill-opacity:1;stroke:none;stroke-width:0.19169526px;stroke-linecap:butt;stroke-linejoin:miter;stroke-opacity:1"
       d="m 275.34037,-113.1997 c 15.40415,-8.21556 9.29386,-6.28158 42.97761,-17.5094 19.16965,-6.43563 18.82733,-3.14938 18.75883,-16.02047 v -33.40991 c -20.95133,4.47917 -18.45097,0.76294 -18.8079,15.9236 v 16.08275 c -0.43009,12.35773 0.59682,9.99574 -4.64068,12.15236 -9.58478,4.02216 -14.40332,6.82594 -19.68305,9.8329 -5.34722,2.95809 -4.13526,2.06009 -19.10443,11.88302 -1.66303,1.31801 -2.88092,2.81885 0.49962,1.06515 z"
       id="path831"
       inkscape:connector-curvature="0"
       sodipodi:nodetypes="cccccccccc"
       inkscape:export-xdpi="25.4"
       inkscape:export-ydpi="25.4" />
    <path
       style="fill:#83274e;fill-opacity:1;stroke:none;stroke-width:0.19169526px;stroke-linecap:butt;stroke-linejoin:miter;stroke-opacity:1"
       d="m 324.36339,-128.58154 c 9.73715,-2.45783 16.07232,-3.38877 30.40185,-6.2934 16.45956,-2.61412 15.49132,-1.83961 15.58806,-9.87582 v -35.63031 l -16.45951,3.29198 v 31.17637 c 0.33524,10.59664 0.40377,8.20049 -11.78259,11.48674 -8.66932,2.04687 -8.98705,2.03237 -17.80033,4.38163 -2.80376,0.9787 -4.20756,2.33411 0.0535,1.46281 z"
       id="path833"
       inkscape:connector-curvature="0"
       sodipodi:nodetypes="cccccccccc"
       inkscape:export-xdpi="25.4"
       inkscape:export-ydpi="25.4" />
    <path
       style="fill:#83274e;fill-opacity:1;stroke:none;stroke-width:0.19169526px;stroke-linecap:butt;stroke-linejoin:miter;stroke-opacity:1"
       d="m 264.25683,-112.32643 0.0685,-31.28758 c -0.89003,-16.568 -0.5477,-17.5266 -27.79601,-36.28536 v 34.09441 c 0.13686,9.24264 -0.87288,8.09595 16.1573,22.02815 6.21301,4.99766 9.31097,6.45257 11.57024,11.45038 z"
       id="path829-2"
       inkscape:connector-curvature="0"
       sodipodi:nodetypes="cccccc"
       inkscape:export-xdpi="25.4"
       inkscape:export-ydpi="25.4" />
    <path
       style="fill:#83274e;fill-opacity:1;stroke:none;stroke-width:0.19169526px;stroke-linecap:butt;stroke-linejoin:miter;stroke-opacity:1"
       d="m 258.87126,-112.81975 c -15.40418,-8.21561 -9.29388,-6.28148 -42.97766,-17.50955 -19.16961,-6.4355 -18.8273,-3.14919 -18.75883,-16.02032 v -33.40991 c 20.95132,4.47924 18.45104,0.76298 18.80798,15.92357 v 16.08286 c 0.43009,12.35759 -0.59683,9.99562 4.64057,12.15226 9.5848,4.02219 14.40335,6.826 19.68309,9.83308 5.34722,2.95782 4.13529,2.05994 19.10443,11.88282 1.66306,1.31802 2.88094,2.81885 -0.49958,1.06519 z"
       id="path831-1"
       inkscape:connector-curvature="0"
       sodipodi:nodetypes="cccccccccc"
       inkscape:export-xdpi="25.4"
       inkscape:export-ydpi="25.4" />
    <path
       style="fill:#83274e;fill-opacity:1;stroke:none;stroke-width:0.19169526px;stroke-linecap:butt;stroke-linejoin:miter;stroke-opacity:1"
       d="m 209.84821,-128.20165 c -9.73717,-2.45777 -16.07234,-3.38867 -30.40189,-6.29333 -16.45964,-2.61423 -15.49142,-1.8397 -15.58824,-9.87596 v -35.63016 l 16.45963,3.29195 v 31.17654 c -0.33525,10.59657 -0.40372,8.2004 11.78271,11.48664 8.66928,2.04688 8.98703,2.03229 17.80036,4.38149 2.80367,0.97878 4.20756,2.33422 -0.0525,1.46283 z"
       id="path833-9"
       inkscape:connector-curvature="0"
       sodipodi:nodetypes="cccccccccc"
       inkscape:export-xdpi="25.4"
       inkscape:export-ydpi="25.4" />
    <path
       style="opacity:1;fill:#f3b14f;fill-opacity:1;stroke:none;stroke-width:0.4453344;stroke-linecap:round;stroke-linejoin:round;stroke-miterlimit:4;stroke-dasharray:none;stroke-dashoffset:53.70708847;stroke-opacity:1;paint-order:normal"
       d="m 177.24043,-59.215901 v 5.844634 h 172.45831 21.24342 v -5.844634 h -21.24342 z"
       id="rect817-11-3-9"
       inkscape:connector-curvature="0"
       inkscape:export-xdpi="25.4"
       inkscape:export-ydpi="25.4" />
    <path
       style="opacity:1;fill:#f3b14f;fill-opacity:1;stroke:none;stroke-width:0.5526551;stroke-linecap:round;stroke-linejoin:round;stroke-miterlimit:4;stroke-dasharray:none;stroke-dashoffset:53.70708847;stroke-opacity:1;paint-order:normal"
       d="m 180.44066,-43.109177 v 5.844599 h 122.02071 32.71631 v -5.844599 h -32.71631 z"
       id="rect817-11-3-9-9"
       inkscape:connector-curvature="0"
       inkscape:export-xdpi="25.4"
       inkscape:export-ydpi="25.4" />
    <path
       style="opacity:1;fill:#f3b14f;fill-opacity:1;stroke:none;stroke-width:0.4996995;stroke-linecap:round;stroke-linejoin:round;stroke-miterlimit:4;stroke-dasharray:none;stroke-dashoffset:53.70708847;stroke-opacity:1;paint-order:normal"
       d="m 165.90488,-75.040132 v 5.844625 h 178.72977 26.7465 v -5.844625 h -26.7465 z"
       id="rect817-11-3-9-0"
       inkscape:connector-curvature="0"
       inkscape:export-xdpi="25.4"
       inkscape:export-ydpi="25.4" />
    <path
       style="opacity:1;fill:#f3b14f;fill-opacity:1;stroke:none;stroke-width:1.12215924;stroke-linecap:round;stroke-linejoin:round;stroke-miterlimit:4;stroke-dasharray:none;stroke-dashoffset:53.70708847;stroke-opacity:1;paint-order:normal"
       d="m 165.85763,-105.46687 v 5.844027 h 134.88612 69.73359 v -5.844027 h -69.73359 z"
       id="rect817"
       inkscape:connector-curvature="0"
       inkscape:export-xdpi="25.4"
       inkscape:export-ydpi="25.4" />
    <path
       style="opacity:1;fill:#f3b14f;fill-opacity:1;stroke:none;stroke-width:1.16457033;stroke-linecap:round;stroke-linejoin:round;stroke-miterlimit:4;stroke-dasharray:none;stroke-dashoffset:53.70708847;stroke-opacity:1;paint-order:normal"
       d="m 165.88124,-90.856772 v 5.843963 h 145.2748 59.77338 v -5.843963 h -59.77338 z"
       id="rect817-11"
       inkscape:connector-curvature="0"
       inkscape:export-xdpi="25.4"
       inkscape:export-ydpi="25.4" />
    <path
       style="opacity:1;fill:#640125;fill-opacity:1;stroke:#442222;stroke-width:0.34801808;stroke-linecap:round;stroke-linejoin:round;stroke-miterlimit:4;stroke-dasharray:none;stroke-dashoffset:53.70708847;stroke-opacity:1;paint-order:normal"
       d="m 169.34971,-106.55197 h 27.39837 v 40.302123 h -27.39837 z"
       id="rect815"
       inkscape:connector-curvature="0"
       inkscape:export-xdpi="25.4"
       inkscape:export-ydpi="25.4" />
    <path
       style="opacity:1;fill:#640125;fill-opacity:1;stroke:#442222;stroke-width:0.37487501;stroke-linecap:round;stroke-linejoin:round;stroke-miterlimit:4;stroke-dasharray:none;stroke-dashoffset:53.70708847;stroke-opacity:1;paint-order:normal"
       d="m 221.84345,-78.805149 h 27.37154 v 46.808139 h -27.37154 z"
       id="rect815-8"
       inkscape:connector-curvature="0"
       inkscape:export-xdpi="25.4"
       inkscape:export-ydpi="25.4" />
    <path
       style="opacity:1;fill:#640125;fill-opacity:1;stroke:#442222;stroke-width:0.41044527;stroke-linecap:round;stroke-linejoin:round;stroke-miterlimit:4;stroke-dasharray:none;stroke-dashoffset:53.70708847;stroke-opacity:1;paint-order:normal"
       d="m 262.03406,-107.01195 h 27.34214 v 56.172927 h -27.34214 z"
       id="rect815-8-5"
       inkscape:connector-curvature="0"
       inkscape:export-xdpi="25.4"
       inkscape:export-ydpi="25.4" />
    <path
       style="opacity:1;fill:#640125;fill-opacity:1;stroke:#442222;stroke-width:0.18626632;stroke-linecap:round;stroke-linejoin:round;stroke-miterlimit:4;stroke-dasharray:none;stroke-dashoffset:53.70708847;stroke-opacity:1;paint-order:normal"
       d="m 200.65145,-79.261222 h 11.49852 v 27.508827 h -11.49852 z"
       id="rect815-8-4"
       inkscape:connector-curvature="0"
       inkscape:export-xdpi="25.4"
       inkscape:export-ydpi="25.4" />
    <path
       style="opacity:1;fill:#640125;fill-opacity:1;stroke:#442222;stroke-width:0.36560601;stroke-linecap:round;stroke-linejoin:round;stroke-miterlimit:4;stroke-dasharray:none;stroke-dashoffset:53.70708847;stroke-opacity:1;paint-order:normal"
       d="m 319.80576,-92.536675 h 27.38063 v 44.506922 h -27.38063 z"
       id="rect815-8-48"
       inkscape:connector-curvature="0"
       inkscape:export-xdpi="25.4"
       inkscape:export-ydpi="25.4" />
    <path
       style="opacity:1;fill:#640125;fill-opacity:1;stroke:#442222;stroke-width:0.15964594;stroke-linecap:round;stroke-linejoin:round;stroke-miterlimit:4;stroke-dasharray:none;stroke-dashoffset:53.70708847;stroke-opacity:1;paint-order:normal"
       d="m 296.68943,-79.496007 h 15.59411 v 14.900516 h -15.59411 z"
       id="rect815-8-45"
       inkscape:connector-curvature="0"
       inkscape:export-xdpi="25.4"
       inkscape:export-ydpi="25.4" />
    <path
       id="path842-3"
       d="m 331.04968,131.05687 c 1.60744,3.55277 0.26488,7.98237 -2.99566,9.90946 -3.26965,1.91796 -7.22433,0.59365 -8.83174,-2.95915 -1.60745,-3.55281 -0.26488,-7.9915 3.00479,-9.90944 3.26968,-1.91798 7.2152,-0.59366 8.82261,2.95913 z"
       style="fill:#941f57;fill-opacity:1;fill-rule:nonzero;stroke:none;stroke-width:0.1141651"
       inkscape:connector-curvature="0"
       inkscape:export-xdpi="25.4"
       inkscape:export-ydpi="25.4" />
    <path
       id="path846-6"
       d="m 325.42366,171.20611 c -1.1325,3.73547 -5.06889,6.18316 -8.78609,5.4799 -3.72631,-0.70324 -5.82691,-4.30169 -4.69441,-8.03714 1.1325,-3.73545 5.05975,-6.18315 8.78607,-5.47988 3.71718,0.71239 5.81781,4.31081 4.69443,8.03712 z"
       style="fill:#941f57;fill-opacity:1;fill-rule:nonzero;stroke:none;stroke-width:0.1141651"
       inkscape:connector-curvature="0"
       inkscape:export-xdpi="25.4"
       inkscape:export-ydpi="25.4" />
    <flowRoot
       xml:space="preserve"
       id="flowRoot1597"
       style="font-style:normal;font-variant:normal;font-weight:normal;font-stretch:normal;font-size:933.33337402px;line-height:1.25;font-family:'Century Schoolbook';-inkscape-font-specification:'Century Schoolbook, Normal';font-variant-ligatures:normal;font-variant-caps:normal;font-variant-numeric:normal;font-feature-settings:normal;text-align:start;letter-spacing:0px;word-spacing:0px;writing-mode:lr-tb;text-anchor:start;fill:#83274e;fill-opacity:1;stroke:none"
       transform="matrix(0.22069741,0,0,0.22069741,451.86792,-207.99921)"><flowRegion
         id="flowRegion1599"
         style="font-style:normal;font-variant:normal;font-weight:normal;font-stretch:normal;font-size:933.33337402px;font-family:'Century Schoolbook';-inkscape-font-specification:'Century Schoolbook, Normal';font-variant-ligatures:normal;font-variant-caps:normal;font-variant-numeric:normal;font-feature-settings:normal;text-align:start;writing-mode:lr-tb;text-anchor:start;fill:#83274e;fill-opacity:1"><rect
           id="rect1601"
           width="2899.4937"
           height="2223.7263"
           x="828.32507"
           y="118.91891"
           style="font-style:normal;font-variant:normal;font-weight:normal;font-stretch:normal;font-size:933.33337402px;font-family:'Century Schoolbook';-inkscape-font-specification:'Century Schoolbook, Normal';font-variant-ligatures:normal;font-variant-caps:normal;font-variant-numeric:normal;font-feature-settings:normal;text-align:start;writing-mode:lr-tb;text-anchor:start;fill:#83274e;fill-opacity:1" /></flowRegion><flowPara
         id="flowPara1603"
         style="font-size:933.33337402px;fill:#83274e;fill-opacity:1">CL</flowPara><flowPara
         style="font-size:933.33337402px;fill:#83274e;fill-opacity:1"
         id="flowPara870">KIITA</flowPara></flowRoot>  </g>
</svg>
